Coordinates
version=1
nRows=11
nColumns=38
inDegrees=no

Units are S.I. units (second, meters, Newtons, ...)
If the header above contains a line with 'inDegrees', this indicates whether rotational values are in degrees (yes) or radians (no).

endheader
time	pelvis_tilt	pelvis_list	pelvis_rotation	pelvis_tx	pelvis_ty	pelvis_tz	hip_flexion_r	hip_adduction_r	hip_rotation_r	knee_angle_r	ankle_angle_r	subtalar_angle_r	mtp_angle_r	hip_flexion_l	hip_adduction_l	hip_rotation_l	knee_angle_l	ankle_angle_l	subtalar_angle_l	mtp_angle_l	lumbar_extension	lumbar_bending	lumbar_rotation	arm_flex_r	arm_add_r	arm_rot_r	elbow_flex_r	pro_sup_r	wrist_flex_r	wrist_dev_r	arm_flex_l	arm_add_l	arm_rot_l	elbow_flex_l	pro_sup_l	wrist_flex_l	wrist_dev_l
1.4	-0.15116	-0.0442086	0.067242	0.719205	0.962536	-0.339321	0.535578	-0.166366	-0.252508	-2.18387	0.241506	0.1	-4.23075e-05	0.47934	-0.112481	-0.300505	-0.897486	0.659693	0.1	2.91853e-05	-0.107349	-0.0374906	-0.158207	-0.33501	-0.347722	0.0729792	1.05613	1.46477	0.0999999	-0.0715173	-0.0171375	-0.795613	0.438091	1.73513	1.40494	0.0610603	-0.0496122
1.41	-0.155891	-0.0618982	0.058971	0.716905	0.963779	-0.338931	0.625748	-0.139631	-0.243939	-2.18473	0.255649	0.1	-4.23075e-05	0.421466	-0.137282	-0.307005	-0.885803	0.673444	0.1	2.91853e-05	-0.10536	-0.0146197	-0.173108	-0.355925	-0.354259	0.0731903	1.05244	1.45795	0.0999999	-0.0715173	0.0327704	-0.778877	0.425318	1.75346	1.42342	0.0610603	-0.0496122
1.42	-0.156968	-0.0819677	0.04921	0.715582	0.966967	-0.338505	0.705312	-0.108941	-0.239426	-2.16444	0.269403	0.1	-4.23075e-05	0.350618	-0.164293	-0.323646	-0.854925	0.663065	0.1	2.91853e-05	-0.105824	0.011947	-0.186405	-0.377991	-0.363318	0.074722	1.05748	1.44542	0.0999999	-0.0715173	0.073946	-0.758955	0.404213	1.77692	1.43572	0.0610603	-0.0496122
1.43	-0.155003	-0.103698	0.0387598	0.71534	0.971876	-0.338111	0.772735	-0.0763731	-0.239377	-2.12406	0.282319	0.1	-4.23075e-05	0.269755	-0.192095	-0.349357	-0.80828	0.62795	0.1	2.91853e-05	-0.107969	0.0413918	-0.19869	-0.40116	-0.374732	0.0771464	1.06961	1.43053	0.0999999	-0.0715173	0.106689	-0.736875	0.377609	1.80557	1.4402	0.0610603	-0.0496122
1.44	-0.151176	-0.126165	0.028348	0.71616	0.978154	-0.337776	0.82771	-0.0439872	-0.243602	-2.06518	0.293958	0.1	-4.23075e-05	0.182975	-0.219145	-0.38213	-0.750375	0.569537	0.1	2.91853e-05	-0.110478	0.0725944	-0.210501	-0.425438	-0.388022	0.0795694	1.08695	1.41649	0.0999999	-0.0715173	0.131865	-0.713808	0.348866	1.83905	1.43657	0.0610603	-0.0496122
1.45	-0.147002	-0.148247	0.0185181	0.71793	0.985329	-0.337518	0.87091	-0.0136104	-0.25139	-1.98964	0.303938	0.1	-4.23075e-05	0.0950113	-0.243936	-0.419163	-0.686496	0.49137	0.1	2.91853e-05	-0.111789	0.104189	-0.222219	-0.450858	-0.402457	0.0808155	1.10765	1.40574	0.0999999	-0.0715173	0.150701	-0.690989	0.321364	1.8766	1.42604	0.0610603	-0.0496122
1.46	-0.144024	-0.168683	0.00959156	0.720446	0.992865	-0.337355	0.903615	0.013289	-0.261697	-1.89924	0.311977	0.1	-4.23075e-05	0.0106484	-0.265111	-0.457093	-0.622348	0.39895	0.1	2.91853e-05	-0.110443	0.134628	-0.234019	-0.477401	-0.417121	0.0796659	1.13016	1.39948	0.0999999	-0.0715173	0.164573	-0.669613	0.298075	1.91717	1.41113	0.0610603	-0.0496122
1.47	-0.143508	-0.186163	0.00169966	0.723437	1.00025	-0.337297	0.92726	0.0356755	-0.273398	-1.79555	0.31793	0.1	-4.23075e-05	-0.0658636	-0.281558	-0.492343	-0.563636	0.299285	0.1	2.91853e-05	-0.105395	0.162294	-0.24587	-0.504906	-0.431005	0.0750938	1.15321	1.39762	0.0999999	-0.0715173	0.174805	-0.650716	0.281272	1.95945	1.39506	0.0610603	-0.0496122
1.48	-0.14619	-0.199459	-0.00514859	0.726607	1.00706	-0.337353	0.943044	0.0529773	-0.285578	-1.67987	0.321848	0.1	-4.23075e-05	-0.131309	-0.292507	-0.521563	-0.515616	0.200134	0.1	2.91853e-05	-0.0962414	0.185651	-0.25757	-0.533008	-0.443098	0.0664509	1.17582	1.39902	0.0999999	-0.0715173	0.182511	-0.63506	0.272391	2.00184	1.38098	0.0610603	-0.0496122
1.49	-0.152144	-0.207591	-0.0109969	0.729688	1.01303	-0.337533	0.951675	0.0650826	-0.297773	-1.55331	0.323976	0.1	-4.23075e-05	-0.183837	-0.297614	-0.542149	-0.482654	0.108876	0.1	2.91853e-05	-0.0833014	0.203429	-0.268776	-0.56111	-0.452498	0.0535755	1.19723	1.4019	0.0999999	-0.0715173	0.188465	-0.623044	0.272012	2.04256	1.37127	0.0610603	-0.0496122
1.5	-0.160775	-0.209966	-0.0158969	0.732501	1.01799	-0.337848	0.953324	0.072268	-0.310127	-1.41709	0.324736	0.1	-4.23075e-05	-0.223054	-0.296992	-0.552616	-0.467849	0.031238	0.1	2.91853e-05	-0.0675577	0.214798	-0.279052	-0.588423	-0.458522	0.0368188	1.21682	1.40429	0.0999999	-0.0715173	0.193023	-0.614672	0.279919	2.07967	1.36709	0.0610603	-0.0496122
